<?xml version="1.0" encoding="utf-8"?>
<svg id="Layer_1" data-name="Layer 1" xmlns="http://www.w3.org/2000/svg" viewBox="0 0 165.36 161.7">
  <defs>
    <style>
      .cls-1 {
        fill: #ef4434;
      }

      .cls-2 {
        fill: #e06d68;
      }

      .cls-3 {
        fill: #0b226c;
      }
    </style>
  </defs>
  <g>
    <g>
      <rect class="cls-1" x="83.562" y="13.537" width="68.297" height="66.873" style="stroke-width: 1; fill: rgb(255, 255, 255); transform-box: fill-box; transform-origin: 50% 50%;" transform="matrix(0.999999, -0.001075, 0.002128, 0.999998, 0.795003, 0.105445)"/>
      <path class="cls-3" d="M100.71,50.41c-.2.02-.38.05-.53.07-.15.03-.35.08-.58.17-.26.09-.44.24-.52.45s-.13.43-.13.66v1.73c0,.35,0,.63,0,.85,0,.21.02.48.03.79-.64.42-1.59.82-2.85,1.19-1.26.37-2.41.56-3.46.56-.99,0-1.92-.17-2.78-.49s-1.63-.82-2.28-1.48c-.65-.65-1.17-1.46-1.55-2.43-.38-.97-.56-2.08-.56-3.32,0-1.16.18-2.24.53-3.23.35-.99.86-1.84,1.53-2.56.65-.71,1.45-1.26,2.39-1.64.94-.39,1.98-.58,3.13-.58.78,0,1.5.11,2.16.32.66.21,1.21.43,1.64.67l.6-.58h.84l.09,5.45h-.85c-.49-1.64-1.07-2.85-1.75-3.65-.68-.79-1.54-1.19-2.58-1.19-1.23,0-2.18.59-2.86,1.77-.67,1.18-1.01,2.8-1.01,4.87,0,2.2.33,3.91.99,5.15.66,1.24,1.59,1.86,2.8,1.86.56,0,1.07-.09,1.51-.28s.78-.4,1.03-.65v-3.03c0-.25-.04-.46-.13-.64-.08-.17-.25-.32-.5-.45-.19-.1-.43-.18-.72-.24-.29-.06-.53-.11-.72-.14v-.82h7.1v.82Z"/>
      <path class="cls-3" d="M112.31,56.25c-.28.13-.62.26-1,.37-.38.11-.79.17-1.22.17-.79,0-1.37-.13-1.74-.38-.37-.26-.62-.62-.76-1.1h-.06c-.22.24-.43.44-.63.61-.2.17-.42.31-.65.43-.3.15-.59.27-.87.35-.28.08-.67.12-1.17.12-.75,0-1.38-.24-1.91-.72-.53-.48-.79-1.12-.79-1.91,0-.46.06-.84.17-1.16s.28-.6.49-.85c.19-.22.42-.41.67-.56.25-.15.53-.28.83-.41.58-.23,1.27-.47,2.08-.72.81-.25,1.4-.47,1.78-.67v-1.01c0-.18-.01-.41-.04-.69-.03-.29-.08-.53-.16-.73-.09-.22-.23-.41-.42-.57-.19-.15-.45-.23-.76-.23-.28,0-.52.04-.71.13-.19.09-.34.18-.46.27.02.14.07.35.16.64.09.29.14.56.14.83,0,.12-.03.27-.09.45-.06.18-.14.32-.25.43-.15.14-.31.25-.5.33-.18.08-.47.12-.85.12-.54,0-.95-.14-1.23-.43-.28-.28-.42-.65-.42-1.11,0-.39.14-.74.43-1.06s.63-.57,1.05-.77c.4-.21.87-.37,1.4-.49.53-.12,1.01-.17,1.46-.17.62,0,1.19.04,1.71.12.52.08.99.25,1.41.5.4.25.71.6.95,1.07.23.47.35,1.07.35,1.82,0,.79-.01,1.73-.04,2.82-.03,1.09-.04,1.8-.04,2.14,0,.32.04.56.13.75.09.18.22.32.4.41.11.06.28.09.52.1.23.01.45.02.64.02v.77ZM107.54,50.77c-.36.13-.72.29-1.07.46-.35.17-.64.35-.87.54-.24.2-.43.45-.56.75-.14.31-.2.67-.2,1.08,0,.55.11.95.34,1.19.23.25.51.37.85.37.35,0,.65-.08.87-.24.23-.16.43-.35.6-.58l.04-3.57Z"/>
      <path class="cls-3" d="M122.4,56.47h-9.48v-.73l5.52-8.75c-.76,0-1.45.01-2.06.03-.61.02-1.09.11-1.45.25-.12.05-.28.3-.49.76-.2.46-.36.94-.48,1.43h-.67v-3.44h8.96v.65l-5.55,8.82c.15,0,.38,0,.68.01.3,0,.58.01.85.01.32,0,.65,0,1.01-.03.36-.02.64-.04.84-.07.26-.03.47-.13.63-.29.16-.16.28-.35.37-.58.08-.2.19-.51.33-.92s.24-.78.31-1.1h.67v3.92Z"/>
      <path class="cls-3" d="M133.77,53.96c-.22.4-.5.78-.81,1.13-.32.35-.68.66-1.08.91-.43.27-.87.47-1.31.6-.44.14-.95.2-1.52.2-.95,0-1.77-.15-2.46-.44-.69-.29-1.26-.69-1.71-1.19-.45-.5-.79-1.08-1.01-1.76-.22-.68-.33-1.41-.33-2.2,0-.71.12-1.4.36-2.06.24-.66.58-1.24,1.03-1.75.44-.5.99-.9,1.65-1.21.66-.31,1.41-.46,2.23-.46.9,0,1.64.12,2.22.36.58.24,1.06.57,1.44.99.37.4.63.87.8,1.41.17.54.25,1.11.25,1.71v.68h-6.51c0,1.44.25,2.53.76,3.28.51.75,1.31,1.12,2.42,1.12.6,0,1.15-.18,1.63-.54.48-.36.89-.82,1.23-1.37l.73.58ZM130.09,49.96c0-.42-.02-.85-.06-1.29-.04-.44-.11-.8-.2-1.08-.11-.33-.26-.58-.45-.75-.19-.17-.43-.25-.72-.25-.49,0-.89.27-1.18.82-.3.55-.46,1.41-.48,2.6l3.09-.04Z"/>
      <path class="cls-3" d="M141.86,55.99c-.41.2-.85.37-1.32.53-.47.16-1.04.24-1.71.24-1,0-1.74-.27-2.23-.8-.48-.53-.73-1.29-.73-2.28v-6.45h-1.73v-1.15h1.77v-3.19h3.12v3.19h2.71v1.15h-2.69v5.75c0,.82.1,1.4.31,1.74.21.34.58.51,1.13.51.17,0,.42-.01.72-.04.31-.03.53-.06.65-.09v.88Z"/>
      <path class="cls-3" d="M153.55,56.25c-.28.13-.62.26-1,.37-.38.11-.79.17-1.22.17-.79,0-1.37-.13-1.74-.38-.37-.26-.62-.62-.76-1.1h-.06c-.22.24-.43.44-.63.61-.2.17-.42.31-.65.43-.3.15-.59.27-.87.35-.28.08-.67.12-1.17.12-.75,0-1.38-.24-1.91-.72s-.79-1.12-.79-1.91c0-.46.06-.84.17-1.16.12-.32.28-.6.49-.85.19-.22.42-.41.67-.56.25-.15.53-.28.83-.41.58-.23,1.27-.47,2.08-.72.81-.25,1.4-.47,1.78-.67v-1.01c0-.18-.01-.41-.04-.69-.03-.29-.08-.53-.16-.73-.09-.22-.23-.41-.42-.57-.19-.15-.45-.23-.76-.23-.28,0-.52.04-.71.13-.19.09-.34.18-.46.27.02.14.07.35.16.64.09.29.14.56.14.83,0,.12-.03.27-.09.45-.06.18-.14.32-.25.43-.15.14-.31.25-.5.33-.18.08-.47.12-.85.12-.54,0-.95-.14-1.23-.43-.28-.28-.42-.65-.42-1.11,0-.39.14-.74.43-1.06s.63-.57,1.05-.77c.4-.21.87-.37,1.4-.49.53-.12,1.01-.17,1.46-.17.62,0,1.19.04,1.71.12.52.08.99.25,1.41.5.4.25.71.6.95,1.07.23.47.35,1.07.35,1.82,0,.79-.01,1.73-.04,2.82-.03,1.09-.04,1.8-.04,2.14,0,.32.04.56.13.75.09.18.22.32.4.41.11.06.28.09.52.1.23.01.45.02.64.02v.77ZM148.77,50.77c-.36.13-.72.29-1.07.46-.35.17-.64.35-.87.54-.24.2-.43.45-.56.75-.14.31-.2.67-.2,1.08,0,.55.11.95.34,1.19.23.25.51.37.85.37.35,0,.65-.08.87-.24.23-.16.43-.35.6-.58l.04-3.57Z"/>
      <rect x="79.004" y="14.377" width="6.087" height="140.264" style="fill: rgb(255, 255, 255); stroke: rgb(255, 255, 255);"/>
      <rect x="10.75" y="80.3" width="141.431" height="6.735" style="fill: rgb(255, 255, 255); stroke: rgb(255, 255, 255);"/>
    </g>
    <g>
      <path class="cls-3" d="M91.43,72.88c-.83,0-1.61-.14-2.33-.42-.72-.28-1.35-.69-1.89-1.23-.53-.53-.94-1.18-1.24-1.95-.3-.78-.45-1.63-.45-2.56s.15-1.78.46-2.57c.31-.79.74-1.47,1.29-2.04.54-.57,1.19-1,1.96-1.31.76-.31,1.57-.47,2.44-.47.63,0,1.2.08,1.72.24.52.16.95.34,1.31.55l.49-.46h.69l.07,4.34h-.7c-.4-1.33-.88-2.3-1.43-2.92-.56-.62-1.24-.93-2.04-.93-1,0-1.76.46-2.28,1.39-.52.93-.78,2.23-.78,3.9,0,.95.09,1.75.27,2.42.18.67.41,1.21.7,1.62.31.43.67.74,1.09.94.42.2.88.3,1.4.3.74,0,1.41-.21,1.99-.64.58-.42,1.11-1.07,1.59-1.93l.69.44c-.23.49-.49.93-.78,1.32-.29.39-.63.72-1.01,1-.42.31-.88.55-1.39.72s-1.11.26-1.8.26Z"/>
      <path class="cls-3" d="M110.19,61.3c-.15.02-.36.05-.64.09-.28.04-.53.15-.75.33-.2.15-.34.41-.42.78-.08.37-.12.9-.12,1.61v8.5h-1.42l-7.05-9.2v5.59c0,.69.04,1.22.13,1.58.09.36.23.62.43.79.14.12.37.23.69.33.31.1.56.16.75.19v.65h-4.87v-.65c.21-.02.45-.06.71-.12.27-.06.49-.16.67-.3.21-.16.35-.41.43-.73.08-.33.12-.88.12-1.65v-5.64c0-.28-.04-.54-.12-.79-.08-.25-.21-.46-.39-.64-.19-.19-.4-.34-.64-.45-.24-.11-.52-.19-.83-.26v-.67h4.26l6.19,8.05v-4.5c0-.72-.05-1.25-.14-1.6-.09-.35-.23-.61-.43-.78-.15-.13-.38-.24-.69-.33-.3-.09-.55-.16-.73-.19v-.65h4.86v.65Z"/>
      <path class="cls-3" d="M123.14,61.32c-.18.02-.34.05-.5.1s-.32.13-.49.23c-.23.14-.41.29-.53.45s-.25.38-.37.66c-.17.39-.4.95-.69,1.69-.3.74-.64,1.58-1.02,2.53-.34.85-.71,1.78-1.11,2.79-.4,1.01-.78,1.98-1.14,2.91h-1.6c-.74-1.92-1.5-3.87-2.27-5.85-.77-1.98-1.31-3.35-1.63-4.13-.12-.28-.24-.49-.36-.63-.11-.14-.3-.29-.55-.44-.18-.11-.34-.18-.48-.22s-.32-.08-.55-.11v-.65h6.14v.64c-.57.07-.96.15-1.17.23-.2.08-.31.18-.31.31,0,.06,0,.13.03.2.02.07.05.16.08.28.17.49.48,1.29.93,2.41.45,1.11,1.11,2.81,1.99,5.1.54-1.39.98-2.57,1.34-3.53.36-.96.67-1.81.94-2.55.13-.36.24-.69.33-1,.09-.31.13-.54.13-.7,0-.18-.12-.33-.37-.45-.24-.12-.7-.21-1.36-.26v-.67h4.59v.67Z"/>
      <path class="cls-3" d="M135.65,72.55h-6.17v-.65c.29-.02.62-.08,1.01-.16.39-.09.58-.19.58-.32,0-.04,0-.09-.01-.15,0-.06-.03-.13-.07-.23l-.97-2.47h-3.91c-.09.23-.19.5-.3.81-.11.31-.2.58-.28.82-.1.31-.16.54-.18.68-.02.14-.03.24-.03.29,0,.18.13.33.39.46.26.13.69.22,1.29.27v.65h-4.64v-.65c.18-.01.37-.04.59-.09.22-.05.39-.11.52-.2.22-.13.4-.3.55-.49.15-.2.28-.43.38-.7.62-1.57,1.24-3.14,1.86-4.72.62-1.58,1.3-3.32,2.06-5.22h1.6c1.04,2.69,1.86,4.82,2.45,6.39.59,1.57,1.09,2.86,1.51,3.89.07.17.16.32.26.46.11.14.26.27.45.39.15.09.32.16.52.2.2.04.38.07.53.08v.65ZM129.7,67.74l-1.64-4.3-1.62,4.3h3.25Z"/>
    </g>
  </g>
  <rect class="cls-1" x="10.46" y="13.356" width="68.04" height="68.04"/>
  <rect class="cls-3" x="10.59" y="87.11" width="68.04" height="68.04"/>
  <rect class="cls-1" x="85.121" y="86.981" width="68.04" height="68.04"/>
  <g>
    <path class="cls-2" d="M61.83,108.82l-2.64,3.54v-9.97h-4.53v-1.05c0-.6-.24-1.15-.64-1.54-.4-.39-.94-.64-1.55-.64-1.2,0-2.18.98-2.18,2.18v1.05h-4.65v-1.05c0-.6-.24-1.15-.64-1.54-.39-.39-.94-.64-1.54-.64-1.2,0-2.18.98-2.18,2.18v1.05h-4.3v-1.05c0-.6-.24-1.15-.64-1.54-.39-.39-.94-.64-1.54-.64-1.2,0-2.18.98-2.18,2.18v1.05h-4.89v40.43h31.48v-22.39l6.51-8.73-3.87-2.88ZM55.83,139.47h-24.77v-33.72h1.53v1.05c0,1.21.98,2.18,2.18,2.18s2.18-.98,2.18-2.18v-1.05h4.3v1.05c0,1.21.98,2.18,2.18,2.18s2.18-.98,2.18-2.18v-1.05h4.65v1.05c0,1.21.98,2.18,2.18,2.18s2.18-.98,2.18-2.18v-1.05h1.18v11.12l-10.72,14.38,3.87,2.88,6.85-9.19v14.54Z"/>
    <rect class="cls-2" x="33.14" y="111.43" width="21.09" height="1.99"/>
    <rect class="cls-2" x="33.14" y="115.25" width="21.09" height="1.99"/>
    <rect class="cls-2" x="33.14" y="119.26" width="14.99" height="1.99"/>
    <path class="cls-2" d="M64.17,105.24h3.06c.49,0,.88.39.88.88v4.11h-4.82v-4.11c0-.49.39-.88.88-.88Z" transform="translate(77.39 -17.91) rotate(36.69)"/>
    <polygon class="cls-2" points="44.14 136.59 48.58 134.66 44.71 131.78 44.14 136.59"/>
  </g>
</svg>