<?xml version="1.0" encoding="UTF-8"?>
<svg id="Layer_1" data-name="Layer 1" xmlns="http://www.w3.org/2000/svg" viewBox="0 0 168.76 168.04">
  <defs>
    <style>
      .cls-1 {
        fill: #f2f3f7;
      }
    </style>
  </defs>
  <path class="cls-1" d="M78.28,62.31c-.41.6-.75.11-1.04-.1-.72-.54-.97-1.37-1.42-2.07-.16-.25-.23-.79-.67-.6-.33.14-.56.59-.42,1.04.07.22.27.42.1.77-.62-.5-1.32-.55-2.06-.47-.25.03-.62-.03-.56.34.06.33.43.35.64.2.97-.67,1.44.03,1.93.56,1.54,1.68,2.64,3.54,2.97,5.86-.49-.24-.47-.61-.63-.87-.13-.21-.27-.36-.55-.19-.26.15-.39.32-.1.58.85.75.15,1.27-.4,1.74-.67.58-1.43,1.07-2.36,1.76.65-.15,1.05-.28,1.45-.33.42-.05.93-.16,1.19.26.24.39-.13.71-.39.95-.52.47-1.11.88-1.67,1.32-.25.2-.51.4-.75.61-.12.11-.22.25-.13.41.12.21.33.17.53.11.16-.05.32-.11.48-.15.2-.05.42-.07.57.08.19.2,0,.32-.15.44-.17.14-.28.32-.04.45.24.14.37-.08.46-.23.24-.36.46-.74.68-1.11.18-.31.21-.77.77-.71.48.05.77.35.92.75.11.29.23.58.28.87.64,3.62,1.7,7.17,2.43,10.78.62,3.07,1.11,6.16,1.88,9.2.09.35.01.31-.34.69-.28.31-.07.76-.07,1.14,0,.29.21.43.52.46.17.01.34.02.51.02.43,0,.87.08,1,.48.16.48-.38.56-.69.75-.11.07-.21.14-.45.29.68.23,1.2-.05,1.72-.1.67-.07,1.33-.27,1.99-.28.59,0,1.09.11.77.95-.49,1.31-.82,2.68-1.1,4.05-.28,1.34.56,2.63,2.01,3.08,1.45.45,2.26,1.31,2.64,2.63.42,1.46,1.17,2.74,2.52,3.74,1.06.79,1.78,1.86,1.97,3.1.34,2.25,1.76,4.02,3.01,5.89.7,1.04,1.72,1.9,2.19,3.07-.9-.68-1.74-1.42-2.54-2.16-.77-.71-1.44-.51-2.06-.19-1.72.89-3.37,1.89-5.04,2.84-1.64.93-3.18,1.99-4.65,3.13-.87.68-1.78,1.31-2.46,2.19-.44.57-1.08,1.06-1.59,1.62-.15.16-.38.3-.61.09-.2-.19-.09-.4.04-.58.6-.86,1.45-1.51,2.25-2.21,2.06-1.79,4.44-3.23,6.68-4.83.89-.63,1.96-1.04,2.77-1.8.46-.42.75-.93,1.12-1.39.12-.14.24-.32.09-.5-.14-.17-.36-.16-.56-.09-1.68.61-3.3,1.3-4.85,2.17-1.76,1-3.13,2.43-4.99,3.34-1.32.65-2.33,1.81-3.48,2.74-.23.18-.44.37-.67.55-.16.13-.35.22-.54.08-.26-.19-.12-.39.04-.55.68-.63,1.31-1.31,2.07-1.86,2.46-1.78,4.93-3.55,7.49-5.22,1.32-.86,2.81-1.55,4.46-1.83.6-.1,1.24-.17,1.69.31.47.5-.13.89-.28,1.36.11.03.2.08.27.06q1.68-.41.63-1.69c-.12-.15-.26-.29-.35-.45-.44-.78-.95-.86-1.6-.19-.12.13-.28.27-.59.15.16-.58,1.04-.85.91-1.61-1.06-.02-1.98.42-2.79.89-1.67.97-3.47,1.73-5.09,2.78-2.11,1.36-4.03,2.92-6.13,4.28-1.62,1.05-3.13,2.19-4.53,3.46-.24.22-.54.32-.79.07-.26-.27.08-.43.25-.59,1.18-1.08,2.54-1.97,3.85-2.91,1.78-1.28,3.56-2.59,5.31-3.91,1.95-1.46,4.25-2.43,6.25-3.83.8-.56,1.96-.77,3-.98.88-.18,1.09-.5.88-1.25-.4-1.42-1.05-2.62-2.73-3.13-.56-.17-1.01-.54-1.22-1.03-.22-.53-.57-.61-1.1-.45-1.84.58-3.68,1.16-5.52,1.72-.54.17-1.23.73-1.6.13-.29-.46.58-.8.99-.93,1.95-.59,3.44-2.1,5.62-2.21.11,0,.21-.11.47-.25-.67-.12-1.14,0-1.61.11-2.53.66-4.96,1.55-7.36,2.51-.59.24-1.2.39-1.82.53-.29.07-.57.04-.61-.29-.04-.27.22-.34.46-.4,2.51-.63,4.72-1.9,7.11-2.8.36-.14.72-.32.9-.81-1.17.36-2.37.67-3.5,1.11-1.73.68-3.56,1.14-5.24,1.93-.18.08-.38.13-.58.17-.22.05-.52.15-.64-.08-.14-.28.22-.32.4-.42,1.59-.88,3.32-1.48,5.03-2.12,1.29-.49,2.26-1.4,3.6-1.78-.05-.09-.09-.18-.14-.27-1.45.5-2.9,1-4.35,1.5-2.08.72-4.11,1.53-6.12,2.38-.28.12-.65.4-.87-.01-.2-.38.22-.53.52-.65,2.49-1.01,4.98-2.01,7.47-3.02.97-.39,1.9-.85,2.94-1.61-1.22.03-2,.5-2.76.87-2.8,1.36-5.75,2.39-8.7,3.42-.32.11-.76.41-.97-.01-.21-.4.31-.56.61-.7,3.21-1.46,6.35-3.05,9.81-4.03-4.15.58-7.84,2.42-11.8,3.53,4.36-1.96,8.64-4.13,13.72-4.24-.14-.13-.38-.26-.43-.43-.31-1.04-.94-.79-1.69-.41-.76.38-1.5,1.01-2.44.22-.24-.2-.65.02-.96.14-1.36.52-2.72,1.06-4.09,1.58-.46.17-1.03.41-1.29-.2-.27-.63.37-.74.82-.92,1.88-.75,3.76-1.48,5.64-2.23.2-.08.47-.1.55-.39-.78-.03-1.43.32-2.13.51-4.7,1.26-9.24,2.88-13.48,5.12-.2.11-.43.18-.65.24-.44.11-.89.16-1.11-.33-.21-.48.12-.77.53-.95,1.72-.77,3.45-1.52,5.19-2.26,1.7-.72,3.39-1.47,5.08-2.23-1.25.4-2.51.78-3.76,1.19-3.26,1.09-6.43,2.35-9.45,3.92-.44.23-.88.49-1.36.59-1.35.27-1.67,1.12-1.77,2.19-.06.67.18.86.85.58,1.63-.68,3.35-1.11,5.07-1.55.28-.07.55-.26.93-.05-.61.46-1.34.57-2.01.79-2.44.8-4.8,1.77-7.09,2.86-.86.41-1.9.29-2.83.59-1.77.57-2.09,1.01-1.67,2.82.39,0,.46-.77.94-.4.61.47.54,1.11.12,2.02,4.89-2.14,9.35-4.48,14.21-5.95-.54.65-1,.84-2.59,1.53-2.45,1.06-4.86,2.2-7.27,3.33-.93.43-1.81.95-2.75,1.36-.86.37-1.4,1.01-2.16,1.75,1.8-.4,3.1-1.27,4.56-1.83,2.9-1.12,5.46-2.82,8.32-4.01.26-.11.59-.38.8-.06.2.3-.19.5-.43.62-2.29,1.14-4.46,2.47-6.86,3.45-1.72.7-3.35,1.56-5.01,2.36-.19.09-.45.18-.41.57,1.23-.21,2.4-.55,3.49-1.05.59-.27,1.3-.35,1.78-.82.14-.13.42-.16.54.02.21.31-.16.34-.34.42-1.43.64-2.87,1.29-4.32,1.9-.84.36-1.63.41-2.18-.44-.36-.55-.72-.33-1.01.03-.78.99-1.55,1.99-2.44,2.9-.11.11-.26.24-.16.4.12.2.35.11.54.09.4-.03.8-.09,1.21-.09.5,0,1.32-.46,1.15.64-.03.19.48.46.75.69.3.26.78.37.91.88-.6-.12-1.03-.44-1.39-.74-.74-.61-1.41-.59-2.14-.03-.32.25-.77.36-1.09.86.53-.26.92-.47,1.33-.65.68-.29,1.2-.04,1.55.47.36.53-.09.86-.5,1.13-.61.42-1.31.68-2.08.52-.71-.15-1.17.12-1.6.54-.94.89-1.54,1.98-2.12,3.08-.04.08-.11.18-.09.26.56,2.01-1.35,3.17-1.99,4.77-.14.35-1.01.94.29.96.08,0,.18.09.21.16.06.14-.05.25-.19.26-2.13.22-2.09,1.91-2.58,3.17-1.05,2.69-2.55,5.2-3.87,7.78-1.35,2.66-3.64,4.81-4.87,7.53-.14.31-.4.52-.8.35-.47-.19-.4-.56-.21-.85.75-1.15,1.51-2.29,2.3-3.42.5-.72,1-1.46,1.25-2.28.79-2.61,2.4-4.87,3.77-7.22.42-.73.84-1.45,1.04-2.26.17-.7.29-1.34-.44-1.9-.48-.36-.39-.87.17-1.13.97-.44,1.24-1.25,1.46-2.07.53-1.96,1.61-3.61,3-5.19.86-.98,1.33-2.24,2.3-3.18.39-.38.74-.78,1.12-1.19-.26-.23-.57.32-.76-.03-.16-.27.06-.52.2-.76,1.1-1.92,2.78-3.5,3.98-5.37.28-.43.64-.8.09-1.27-.18-.15-.15-.41-.02-.6.76-1.15.46-2.42.48-3.65.02-1.29.16-1.47,1.58-1.57,1.51-.11,2.88-.58,4.21-1.2.56-.26.81-.67.9-1.23.24-1.52.31-3.07.99-4.52.19-.4.14-.65-.44-.61-.32.02-.5-.15-.58-.41-.11-.36.19-.47.47-.6.75-.35,1.49-.72,2.02-1.34.34-.4.88-.21,1.31-.36,1.65-.6,3.32-1.16,5.13-1.79-1.04-.25-1.96-.11-2.87-.1-1.26.02-1.25-.03-1.12-1.09.3-2.58.52-5.17.81-7.76.07-.65,0-1.36.64-2.1.17,1.98-.04,3.76-.03,5.56.55-1.08.47-2.26.54-3.39.08-1.24.3-2.39.97-3.49.46-.77.32-1.73.88-2.49.09-.13.08-.32-.07-.42-.86-.52-.29-1-.01-1.55.95-1.87,1.26-3.88,1.52-5.9.02-.17.03-.42-.23-.43-.3-.02-.34.25-.4.45-.37,1.35-.74,2.71-1.11,4.06-.06.22.01.5-.39.66-.21-.47-.11-.94-.07-1.39.22-2.41.62-4.82.57-7.25,0-.32-.19-.85.41-.86.55,0,.75.43.73.92-.03.54-.06,1.09-.04,1.63.02.48.45.74.82.44,2.13-1.72,5.34-1.98,7.06-4.24.13-.17.35-.29.28-.56-.43-.08-.77.12-1.1.32-1.17.71-2.33,1.44-3.52,2.13-.42.25-.95.81-1.39.26-.43-.53.33-.83.69-1.12,1.4-1.14,3.07-1.97,4.42-3.17.52-.46,1.12-.87,1.63-1.53-1.3.35-2.21,1.05-3.14,1.71-1.59,1.12-3.17,2.24-4.76,3.36-.27.19-.69.3-.78.01-.15-.5-1.08-.83-.38-1.56,1.23-1.3,2.62-2.44,4.05-3.54,1.17-.9,2.45-1.69,3.8-2.39.48-.25,1.04-.26,1.5-.51.2-.11.45-.22.29-.49-.14-.24-.32-.11-.5,0-.08.05-.24.11-.25.1-.8-1.13-1.42-.05-1.84.25-1.99,1.43-4.08,2.78-5.74,4.54-.56.6-.94,1.33-1.73,1.75-.23.12-.43.36-.71.15-.24-.17-.08-.38,0-.58.05-.14.15-.32.09-.43-1-1.96-.78-4.22-1.92-6.17-.57-.97-1.49-1.62-2.19-2.47-1.94-2.38-3.34-4.96-4.11-7.83-.15-.58-.36-1.14-.59-1.88-.37.87-.42,1.6-.48,2.31-.15,1.69-.26,3.38-.29,5.08-.07,3.97-.39,7.93-.83,11.88-.41,3.64-.86,7.28-.97,10.95-.03.96-.27,1.86-.66,2.74-.1.23-.27.45-.59.41-.35-.05-.36-.33-.37-.57-.13-4.74.02-9.45,1.33-14.08.02-.07.1-.13.22-.28.22.92,0,1.76.13,2.8.11-1.86.21-3.52.29-5.17.21-3.99.35-7.99.94-11.96.23-1.56.36-3.13.65-4.68.13-.68-.09-1.32-.31-1.96-.55-1.57-.72-3.15-.06-4.73.21-.5.43-1.03,1.24-1,.5.02.55-.39.57-.72.21-3.46.95-6.85,1.4-10.28.04-.32.36-.89-.55-.72-.24.04-.31-.29-.24-.51.12-.38.22-.77.41-1.12.72-1.36.93-2.81,1.01-4.3.1-1.93,1.34-3.25,3.02-4.24.68-.4,1.38-.74,1.95-1.27.68-.63,1.49-.94,2.47-.63.4.12.7.02,1.04-.16,1-.56,2.02-1.1,3.03-1.64.87-.46,1.03-.33,1.58.49.45.66.86,1.16.15,1.89-.24.25.06.58.48.6,1.39.07,1.47.14,1.39,1.39,0,.05.05.1.12.21.48-.34.89-.76,1.45-.97.47-.17.95-.2,1.33.13.41.35.28.81.03,1.18-.34.51-.77.97-1.23,1.55.93-.37,1.74-.72,2.57-1.03.4-.15.84-.27,1.26-.29,1.29-.06,1.87.6,1.58,1.73-.06.23-.14.46-.25.82,4.08-.94,8.12-2.09,11.82.55-.02.08-.03.17-.05.25-.47-.21-.93-.41-1.41-.62-2.23-.95-4.5-.51-6.74-.07-1.18.23-2.33.6-3.5.9-.35.09-.74.25-1.04-.05-.3-.29-.1-.62,0-.94.16-.5.76-1.06.18-1.5-.56-.43-1.2.07-1.78.27-1.18.4-2.2,1.04-3.21,1.7-.49.31-1.07.67-1.47-.14-.19-.38-.43-.14-.64,0-.52.34-1.03.69-1.56,1.01-.38.23-.75.63-1.26.32-.48-.3-.41-.8-.34-1.25.03-.18.08-.36.17-.52.29-.52-.42-.94-.49-.9-.82.51-1.96-.14-2.6.46-1.01.94-2.2,1.68-3.25,2.56-1.9,1.6-3.41,3.34-3.86,5.78-.46,2.45-1.61,4.8-1.4,7.38-.58-.7-.22-1.5-.46-2.46-.3,2.14-.89,4.07-.75,5.96.11,1.45-.71,3.03.46,4.39.06.06.09.2.06.26-.76,1.22.27,2.02.89,2.95-.57.21-.74-.36-1.31-.41.26,1.45.52,2.85,1.47,4.06.23.29.6.62,1.01.5.5-.15.1-.58.14-.88.02-.2-.06-.41.28-.68.27,1.13.43,2.28,2.02,2.52-1.16-2.73-3.53-4.95-4.13-7.94.57.05.57.43.72.66,1.44,2.33,3.12,4.53,4.44,6.92.3.55.51,1.12.71,1.7.17.5.4.76.95.21.5-.49,1.12-.87,1.7-1.28.43-.3.89-.41,1.49,0-1.04.19-1.54.83-2.02,1.56.43.12.52-.17.65-.34.39-.49.91-.85,1.56-.94,1.15-.16,2.17-.63,3.21-1.04.88-.35,1.71.16,1.61,1.01-.02.19.04.28.19.36.13.06.29.06.32-.09.14-.68.47-.28.75-.11.87.53,1.4,1.28,1.78,2.15.31.73.6,1.51,1.58,1.77h-.01ZM76.81,87.32c-.5-.25-.55-.53-.67-.78-.95-1.94-1.88-3.89-2.84-5.82-.14-.29-.21-.74-.63-.75-.46-.01-.7.44-.75.76-.12.74-.37,1.41-.72,2.08-.75,1.45-1.34,2.98-2.75,4.08-.71.55-1.02,1.32-1.33,2.1-.89,2.25-1.41,4.6-2.72,6.73-.69,1.13-.95,2.45-1.06,3.76-.02.25-.13.64.33.63,1.74-.03,3.49.29,5.21-.27,3.58-1.17,7.22-2.17,10.98-2.76.87-.13,1.22-.49,1.25-1.25.04-.93-.18-1.76-.66-2.61-1.13-1.97-1.97-4.04-2.23-6.28-.06-.5.14-1.28-.56-1.42-1.13-.23-1.52-.76-1.45-1.73.02-.25-.07-.56-.4-.53-.44.05-.18.38-.12.57.14.47.35.92.52,1.38.25.65.52,1.29.6,2.11ZM61.13,103.96c1.24.4,1.26.41.79.83-.22.2-.55.37-.26.65.26.26.56,0,.82-.12,3.84-1.69,7.71-3.3,11.79-4.5.81-.24,1.64-.48,2.25-1.1-5.09,1.29-10.39,1.97-15.39,4.24ZM65.09,66.33c.54-1.34.25-2.56-.79-3.52-.63-.59-1.17-1.17-.96-2.07.08-.33-.13-.6-.46-.74-.75-.32-1.14-.92-1.53-1.52-.12-.18-.24-.38-.41-.51-.28-.22-.67-.46-.99-.24-.35.24,0,.56.15.8.63.89,1.44,1.71,1.92,2.66.91,1.77,2.6,3.16,3.06,5.15ZM68.26,71.61c2.39-1.64,4.76-3.27,7.4-4.55.33-.16.83-.51.63-.82-.26-.39-.73.03-1.05.17-2.31.99-4.12,2.58-5.98,4.12-.38.32-.92.52-1.01,1.09ZM66.52,66.05c.61-.52,1.17-1.07,1.79-1.57.98-.79,1.95-1.58,2.92-2.37.15-.12.34-.25.24-.45-.12-.23-.33-.13-.51-.05-2.16.93-3.62,2.42-4.44,4.45ZM85.55,108.08c.42-.07.71-.13,1.01-.18.6-.09,1.3-.25,1.64.32.34.57-.62.59-.77,1.11.59-.11,1.13-.19,1.67-.31.43-.09.47-.36.39-.7-.18-.7-1.45-1.65-2.23-1.66-.15,0-.28,0-.31.15-.13.66-.88.77-1.4,1.27ZM65.33,24.95c1.73-2.04,3.89-3.7,5.91-5.47-2.48,1.38-4.53,3.14-5.91,5.47Z"/>
  <path class="cls-1" d="M110.74,110.74c.03-.45.44-.42.53-.67-.17-.2-.37-.05-.52,0-1.36.58-2.76.91-4.3.71-1.54-.21-2.88-.8-4.08-1.66-.17-.12-.86-.38,0-.64.35-.11.14-.55.08-.83-.2-1.04-.57-2.04-.57-3.13,0-2.02.64-3.76,2.19-5.28,1.34-1.31,3.13-1.29,4.84-1.49.35-.04.6.66,1.25.65-2.3-.18-4.32.13-5.73,1.92.38.09.46-.25.67-.38.22-.13.4-.33.62-.46,1.28-.75,2.7-.87,4.18-.75.29.03.64.2.85-.07.83-1.03,1.79-.43,2.58-.07,1.86.85,2.97,3.28,2.48,5.16-.44-.07-.2-.45-.38-.63-.02.02-.08.05-.08.08-.01,1.19-.22,2.35-.8,3.44-.33.62-.32.62,0,1.35.08.19-.1.34-.22.48-.88,1.11-2.18,1.67-3.62,2.25ZM104.83,105.1c0,.27-.02.55,0,.82.17,2.23,2.12,3.34,4.4,2.55,1-.34,1.87-.85,2.61-1.52.71-.64,1.17-1.39,1.33-2.37.25-1.59-.79-2.62-1.62-3.77-.34-.47-.86-.66-1.48-.64-3.13.09-5.33,1.54-5.24,4.93Z"/>
  <path class="cls-1" d="M71.86,50.59c-2.69,1.28-2.28,1.02-3.13,2.83.71-.42.79-1.2,1.46-1.55.6-.31,1.06-.85,1.95-.94-.17.78-1.15.87-1.23,1.65.56-.46,1.14-.89,1.66-1.38.21-.19.33-.49.69-.42.39.07.38.38.4.65.11,1.49-.08,2.97-.46,4.42-.08.32-.22.74-.68.63-.41-.1-.25-.5-.22-.79.02-.26.21-.52-.09-.81-.63.35-1.02.82-.96,1.63-.61-.36-1.11-.78-1.67-.49-.39.2.19.59.05.91-1.11-.19-2.22-2.29-1.96-3.67.29-1.51,2.46-2.89,4.2-2.67Z"/>
  <path class="cls-1" d="M89.91,114.73c-.04.31-.27.48-.54.47-1.37-.04-2.19.93-3.28,1.41-1.38.6-2.57,1.5-3.92,2.17-1.1.55-2.16,1.26-3.02,2.09-1.09,1.05-2.42,1.83-3.65,2.68-2.1,1.44-4.02,3.03-5.95,4.62-1.34,1.1-2.66,2.23-3.99,3.34-.2.17-.39.4-.67.13-.25-.24-.08-.45.13-.63.97-.84,1.87-1.76,2.93-2.5.99-.69,1.94-1.41,2.8-2.22,2.18-2.05,4.78-3.63,7.21-5.4,2.36-1.71,4.8-3.32,7.3-4.85,1.21-.74,2.59-1.15,3.96-1.59.3-.1.61-.1.71.26Z"/>
  <path class="cls-1" d="M89.66,112.44c-.05.32-.27.46-.51.57-1.22.54-2.19,1.48-3.62,1.71-.91.15-1.53.85-2.29,1.31-2.91,1.75-5.88,3.43-8.56,5.45-1.96,1.48-4.2,2.63-6.06,4.22-.24.21-.59.44-.86.09-.23-.3.14-.49.36-.65,3.03-2.11,5.91-4.4,9.09-6.35,3.53-2.17,7.01-4.41,10.77-6.24.33-.16.66-.31,1.01-.42.34-.11.59.02.66.32Z"/>
  <path class="cls-1" d="M28.9,131.15c-1.57,1.02-2.81,2.05-4.04,3.09-1.29,1.1-2.5,2.27-3.5,3.6-.21.29-.4.64-.84.43-.4-.19-.15-.52-.06-.81.1-.31.46-.63-.06-.94-.15-.09,0-.29.12-.39.91-.75,1.57-1.65,2.06-2.66.1-.2.32-.35.58-.28.79.21,1.21-.26,1.59-.71.49-.58,1.12-.91,1.9-.85.75.07,1.26-.53,2.26-.49Z"/>
  <path class="cls-1" d="M103.68,131.79c-1.14-.09-2.26-.31-2.78-1.38-.45-.93-1.24-1.21-2.24-1.22-.39,0-.81.03-.96-.32-.16-.37.32-.47.54-.67.38-.36,1.14-.74.85-1.18-.28-.44-.85.18-1.3.3-1.05.29-1.91.87-2.69,1.56-.55.49-1.14.94-1.85,1.23-.35.14-.61.34-.8.65-.37.58-.9,1.05-1.5,1.45-.27.18-.57.61-.93.28-.31-.28.14-.54.32-.75,1.45-1.69,3.26-3.02,5.18-4.25.97-.62,2-.9,3.11-1.09.43-.07.91-.16,1.2.24.28.38.12.79-.17,1.1-.49.52-.34.83.26,1.12.67.32,1.21.76,1.46,1.44.14.38.49.55.88.69.52.18,1.03.38,1.54.57-.04.08-.08.16-.12.25Z"/>
  <path class="cls-1" d="M97.52,124.2c.46.14,1.17.04,1.11.68-.05.55-.58.95-1.13,1.18-.25.11-.29-.16-.18-.35.11-.18.26-.36.38-.53.09-.13.18-.28.07-.42-.13-.16-.3-.06-.46-.01-1.53.49-2.84,1.35-4.21,2.09-1.11.6-2.18,1.3-3.2,1.99-.7.47-1.24,1.26-1.92,1.86-1.18,1.04-2.33,2.1-3.5,3.13-.21.18-.5.46-.77.2-.32-.31.15-.42.32-.62,1.09-1.34,2.84-2.12,3.77-3.61.18-.28.48-.52.77-.71,2.58-1.71,4.96-3.71,8.08-4.67.28-.09.58-.14.87-.21Z"/>
  <path class="cls-1" d="M125.6,120.24c-.98-.61-1.3-1.58-1.75-2.46-.42-.82-.75-1.69-1.29-2.46-.78-1.1-1.07-1.12-1.86,0-.8,1.15-1.51,2.36-2.31,3.51-.13.19-.19,1.05-.85.31,0,0-.24.09-.3.18-.51.67-1.26,1.19-1.55,2-.04.11-.09.25-.18.32-.53.39-1.23,1.33-1.55,1.03-.5-.46.47-.95.87-1.37,1.55-1.6,3.03-3.23,4.23-5.06.5-.76,1.12-1.42,1.8-2.06.7-.67,1.18-.47,1.73.09.78.79,1.1,1.79,1.58,2.72.55,1.05.82,2.21,1.43,3.25Z"/>
  <path class="cls-1" d="M59.57,111.64c-2.02,1-3.87,2.19-5.7,3.46.93-.38,1.89-.7,2.79-1.14,2.45-1.2,5.13-2.01,7.47-3.42.23-.14.6-.32.78.02.15.29-.24.4-.45.5-2.24,1.04-4.5,2.05-6.75,3.09-1.14.53-2.25,1.09-3.37,1.65-.41.2-.84.28-1.26.1-.48-.21-.71-.62-.22-.92,2.13-1.28,4.19-2.71,6.7-3.35Z"/>
  <path class="cls-1" d="M139.75,126.39c.56-.06,1.12-.14,1.68-.19.44-.04.81.08.99.47.85,1.84,2.63,2.96,4.09,4.32,1.47,1.37,2.91,2.78,4.58,3.96.2.14.44.29.44.62-.45.14-.77-.12-1.05-.34-2.83-2.1-5.29-4.55-7.89-6.87-.14-.13-.27-.28-.35-.44-.39-.88-1.06-1.35-2.16-1.25-.11.01-.23-.08-.35-.13,0-.05,0-.11,0-.16Z"/>
  <path class="cls-1" d="M162.54,144.4c-.56.06-1.12.14-1.68.19-.44.04-.81-.08-.99-.47-.85-1.84-2.63-2.96-4.09-4.32-1.47-1.37-2.91-2.78-4.58-3.96-.2-.14-.44-.29-.44-.62.45-.14.77.12,1.05.34,2.83,2.1,5.29,4.55,7.89,6.87.14.13.27.28.35.44.39.88,1.06,1.35,2.16,1.25.11-.01.23.08.35.13,0,.05,0,.11,0,.16Z"/>
  <path class="cls-1" d="M81.15,121.58c0-.61.54-.69.84-.91,2.97-2.18,6.08-4.16,9.73-5.33.41-.13.83-.28,1.28-.22.43.06.55.34.43.67-.13.35-.34.17-.62.08-.84-.26-1.55.25-2.26.5-2.55.91-4.73,2.37-6.9,3.85-.72.49-1.51,1.07-2.5,1.35Z"/>
  <path class="cls-1" d="M101.78,126.66c3.1,2.79,5.27,6.21,8.06,9.21-3.46-2.55-5.62-5.97-8.06-9.21Z"/>
  <path class="cls-1" d="M32,127.56c-.05-.11-.08-.23-.14-.33-.11-.21-.13-.54-.4-.59-.37-.07-.44.31-.61.51-1,1.18-2.36,1.86-3.92,2.24-.23.06-.58.19-.69-.12-.08-.25.25-.31.45-.4,1.77-.77,3.21-1.86,4.08-3.48.13-.25.31-.49.69-.39.35.09.7.26.63.61-.14.66.16,1.31-.1,1.96Z"/>
  <path class="cls-1" d="M78.3,62.32c-.06-.11-.13-.21-.19-.32-.09-.18-.33-.4-.1-.57.29-.21.51.06.66.23.82.95,1.8,1.74,2.15,3.04.56,2.07,1.02,4.17,1.61,6.24-.62-.65-.83-1.46-1.07-2.24-.25-.8-.38-1.62-1.06-2.3-.43-.43-.58-1.1-.59-1.71-.02-1.04-.6-1.76-1.43-2.38,0,0,.01.01.01.01Z"/>
  <path class="cls-1" d="M33.77,112.63c.87.11,1.47.36,1.98.73.41.3.74.39,1.14.04.61-.54,1.48-.55,2.2-.86.17-.08.42-.13.54.07.12.19-.06.35-.22.46-.87.63-1.72,1.26-2.62,1.86-.49.33-1.01.15-1.35-.22-.56-.62-1.05-1.29-1.68-2.07Z"/>
  <path class="cls-1" d="M17.1,142.85c-.02.84-.52,1.43-1.1,1.88-.73.56-1.32,1.2-1.89,1.87-.37.43-.79.73-1.33.26-.45-.4-.29-.86.14-1.18.75-.57,1.15-1.59,2.45-1.47.37.03.65-.38.87-.69.19-.27.34-.59.85-.66Z"/>
  <path class="cls-1" d="M136.24,107.73c-.83,1.45-2.03,2.77-3.13,2.35-1.04-.4-2.09-.77-3.38-.93.95-.94,1.91-.7,2.74-.32.87.4,1.45.31,2.09-.34.4-.42.97-.71,1.69-.76Z"/>
  <path class="cls-1" d="M137.23,127.72c-.37.71-.93,1.22-1.63,1.6-.84.46-1.68.48-2.43-.09-.76-.57-1.58-.93-2.58-.84-.96.09-.69-.71-1-1.09-.78-.97-.86-2.19-1.39-3.25.62.43.84,1.06,1.08,1.66.25.63.45,1.42,1.03,1.73,1.34.72,2.81,1.26,4.26,1.79.42.15.8-.25,1.15-.48.51-.34,1.01-.69,1.52-1.03Z"/>
  <path class="cls-1" d="M29.21,138.65c-.04-.21-.08-.32-.08-.43,0-.22.24-.49-.1-.64-.28-.12-.52.08-.73.21-.92.56-1.78,1.18-2.52,1.92-.25.25-.47.78-.9.43-.34-.27.28-.44.42-.68.46-.79,1.14-1.41,1.86-2,.36-.29.75-.5,1.22-.61.6-.15,1.23-.15,1.52.37.32.56-.13.99-.69,1.43Z"/>
  <path class="cls-1" d="M21.93,139.94c-.34-.09-.3-.34-.12-.48,1-.81,1.52-1.96,2.56-2.77.94-.73,2.1-1.31,2.64-2.42.06-.12.23-.22.37-.3.19-.1.4-.34.61-.14.25.23,0,.44-.18.62-.97,1.03-2.25,1.77-3.25,2.78-.72.72-1.32,1.52-2,2.26-.17.19-.31.4-.63.43Z"/>
  <path class="cls-1" d="M114.05,142.9c-1.13.14-2-.42-2.32-1.44-.23-.75-.32-1.54-.46-2.32-.1-.59-.2-1.16-1.06-1.22-.16-.01-.36-.11-.31-.29.07-.24.33-.19.51-.14.94.24,1.46.84,1.63,1.68.09.45.12.9.19,1.35.17,1,.42,1.96,1.81,2.38Z"/>
  <path class="cls-1" d="M32.09,128.3c1.44.93,2.21,2.06,2.25,3.57.01.39.14.77.24,1.16.18.71.34,1.46,1.72,1.27-.72.6-1.2.49-1.63.15-.58-.45-.9-1.03-.93-1.74-.03-.75-.13-1.51-.17-2.26-.02-.47-.26-.79-.67-1.06-.38-.24-.76-.49-.81-1.09Z"/>
  <path class="cls-1" d="M73.86,126.46c.68-.73,1.51-1.32,2.28-1.93,1.11-.89,2.23-1.83,3.63-2.37.23-.09.53-.36.7-.1.19.29-.16.45-.42.6-1.53.87-3.08,1.7-4.3,2.94-.49.5-1.17.71-1.89.86Z"/>
  <path class="cls-1" d="M78.81,70.23c1.7,1.36,2.45,3.22,3.4,4.96.11.21.24.48-.11.62-.23.09-.39-.09-.47-.25-.92-1.79-1.78-3.6-2.83-5.33Z"/>
  <path class="cls-1" d="M64.65,119.27c-.41.54-1.04.7-1.59.93-1.09.46-2.2.88-3.31,1.3-.28.11-.57.18-.86.25-.2.04-.43.02-.5-.19-.08-.23.14-.32.32-.39.55-.22,1.11-.42,1.67-.62,1.08-.39,2.17-.79,3.26-1.18.29-.1.58-.3,1.02-.1Z"/>
</svg>